<svg width="73" height="73" viewBox="0 0 73 73" fill="none" xmlns="http://www.w3.org/2000/svg">
<path d="M62.5556 43.9444L59.564 64.8868C59.3049 66.6999 59.1747 67.6077 58.7369 68.2896C58.3513 68.8904 57.8015 69.3669 57.152 69.6639C56.4161 70 55.5023 70 53.6769 70H43.9444M62.5556 43.9444H43.9444M62.5556 43.9444C67.406 41.6947 70 35.6204 70 30.2969C70 24.5817 66.1683 19.6872 60.7309 17.6544C59.5666 17.2193 58.8333 16.0951 58.8333 14.9427C58.8333 10.2317 54.6671 6.41142 49.5278 6.41142C48.6854 6.41142 47.8699 6.514 47.0942 6.70625C45.4854 7.10487 43.6858 7.01665 42.3015 6.16609C39.0464 4.16584 35.1299 3 30.9167 3C19.6102 3 10.4444 11.4019 10.4444 21.7662C10.4444 23.0763 9.59165 24.275 8.37068 24.9559C5.1504 26.7518 3 30.001 3 33.7091C3 38.4635 5.65126 42.7935 10.4444 43.9444M43.9444 70V43.9444M43.9444 70H29.0556M43.9444 43.9444H29.0556M10.4444 43.9444L13.4362 64.8868L13.4366 64.8916C13.6952 66.7017 13.8247 67.6081 14.262 68.2896C14.6477 68.8904 15.1984 69.3669 15.8478 69.6639C16.5836 70 17.4975 70 19.323 70H29.0556M10.4444 43.9444H29.0556M29.0556 70V43.9444" stroke="white" stroke-width="5" stroke-linecap="round" stroke-linejoin="round"/>
</svg>
